# 3ds Max Wavefront OBJ Exporter v0.97b - (c)2007 guruware
# File Created: 30.01.2014 16:49:05

mtllib GiantHead.mtl

#
# object Head
#

v  0.0000 -8.1914 13.5692
v  0.0000 -9.1475 3.3000
v  -4.1900 -8.7135 3.3000
v  -4.1900 -8.7135 11.7808
v  -8.7506 -7.2090 3.3000
v  -8.7506 -7.2090 7.0591
v  0.0000 -9.1475 -0.0000
v  -4.1900 -8.7135 -0.0000
v  -8.7506 -7.2090 -0.0000
v  0.0000 -9.1475 -3.3000
v  -4.1900 -8.7135 -3.3000
v  -8.7506 -7.2090 -3.3000
v  0.0000 -9.1475 -6.6000
v  -4.1900 -8.7135 -6.6000
v  -8.7506 -7.2090 -6.6000
v  0.0000 13.3090 6.5812
v  -4.4407 12.5845 6.5812
v  -4.4407 14.6131 3.3000
v  0.0000 15.3376 3.3000
v  -9.2162 10.5176 5.5755
v  -9.2162 10.5176 3.3000
v  -4.4407 14.6131 0.0000
v  0.0000 15.3376 0.0000
v  -9.2162 10.5176 0.0000
v  -4.4407 14.6131 -3.3000
v  0.0000 15.3376 -3.3000
v  -9.2162 10.5176 -3.3000
v  -4.4407 8.9645 -10.3795
v  0.0000 9.6890 -10.3795
v  -9.2162 7.9614 -9.1335
v  -4.9004 -2.7376 13.5692
v  0.0000 -2.7376 13.5692
v  -10.0462 -2.7376 7.5858
v  -4.9004 2.7932 13.5692
v  0.0000 2.7932 13.5692
v  -10.0462 2.7932 7.5910
v  -4.9004 4.1898 10.7234
v  0.0000 4.1898 10.7234
v  -9.2162 4.1898 7.5246
v  -4.9004 5.5865 10.7234
v  0.0000 5.5865 10.7234
v  -9.2162 5.5865 7.2291
v  -10.0462 -2.7376 3.3000
v  -10.0462 -2.7376 -0.0000
v  -10.0462 -2.7376 -3.3000
v  -10.0462 -2.7376 -8.3701
v  -10.0462 2.7932 3.3000
v  -10.0462 2.7932 0.0000
v  -10.0462 2.7932 -3.3000
v  -10.0462 2.7932 -8.3701
v  -9.2162 4.1898 3.3000
v  -9.2162 4.1898 0.0000
v  -9.2162 4.1898 -3.3000
v  -9.2162 4.1898 -9.0805
v  -9.2162 5.5865 3.3000
v  -9.2162 5.5865 0.0000
v  -9.2162 5.5865 -3.3000
v  -9.2162 5.5865 -8.8398
v  -4.9004 -2.7376 -8.3701
v  0.0000 -2.7376 -8.3701
v  -4.9004 2.7932 -8.3701
v  0.0000 2.7932 -8.3701
v  -4.9004 4.1898 -9.7294
v  0.0000 4.1898 -9.7294
v  -4.9004 5.5865 -9.7294
v  0.0000 5.5865 -9.7294
v  4.1900 -8.7135 11.7808
v  4.1900 -8.7135 3.3000
v  8.7506 -7.2090 7.0591
v  8.7506 -7.2090 3.3000
v  4.1900 -8.7135 -0.0000
v  8.7506 -7.2090 -0.0000
v  4.1900 -8.7135 -3.3000
v  8.7506 -7.2090 -3.3000
v  4.1900 -8.7135 -6.6000
v  8.7506 -7.2090 -6.6000
v  4.4407 14.6131 3.3000
v  4.4407 12.5845 6.5812
v  9.2162 10.5176 3.3000
v  9.2162 10.5176 5.5755
v  4.4407 14.6131 0.0000
v  9.2162 10.5176 0.0000
v  4.4407 14.6131 -3.3000
v  9.2162 10.5176 -3.3000
v  4.4407 8.9645 -10.3795
v  9.2162 7.9614 -9.1335
v  4.9004 -2.7376 13.5692
v  10.0462 -2.7376 7.5858
v  4.9004 2.7932 13.5692
v  10.0462 2.7932 7.5910
v  4.9004 4.1898 10.7234
v  9.2162 4.1898 7.5246
v  4.9004 5.5865 10.7234
v  9.2162 5.5865 7.2291
v  10.0462 -2.7376 3.3000
v  10.0462 -2.7376 -0.0000
v  10.0462 -2.7376 -3.3000
v  10.0462 -2.7376 -8.3701
v  10.0462 2.7932 3.3000
v  10.0462 2.7932 0.0000
v  10.0462 2.7932 -3.3000
v  10.0462 2.7932 -8.3701
v  9.2162 4.1898 3.3000
v  9.2162 4.1898 0.0000
v  9.2162 4.1898 -3.3000
v  9.2162 4.1898 -9.0805
v  9.2162 5.5865 3.3000
v  9.2162 5.5865 0.0000
v  9.2162 5.5865 -3.3000
v  9.2162 5.5865 -8.8398
v  4.9004 -2.7376 -8.3701
v  4.9004 2.7932 -8.3701
v  4.9004 4.1898 -9.7294
v  4.9004 5.5865 -9.7294
# 114 vertices

vn 0.0000 -0.9995 0.0309
vn 0.0000 -0.9989 0.0463
vn -0.1957 -0.9805 0.0176
vn -0.0018 -1.0000 0.0000
vn -0.3133 -0.9497 0.0000
vn -0.0000 -1.0000 -0.0000
vn -0.2094 -0.9778 -0.0000
vn -0.3133 -0.9497 -0.0000
vn 0.0000 -1.0000 -0.0000
vn -0.0000 0.8506 0.5259
vn -0.3680 0.8205 0.4375
vn -0.3953 0.8851 0.2456
vn 0.0000 0.9639 0.2662
vn -0.3972 0.9177 0.0000
vn -0.5733 0.8149 0.0855
vn -0.4217 0.9067 -0.0000
vn -0.0000 1.0000 -0.0000
vn -0.6510 0.7591 -0.0000
vn -0.3713 0.8852 -0.2803
vn -0.0000 0.9473 -0.3203
vn -0.6413 0.7477 -0.1723
vn -0.2206 0.7624 -0.6083
vn 0.0000 0.7817 -0.6237
vn -0.4322 0.7497 -0.5011
vn -0.0000 -0.1872 0.9823
vn -0.5532 -0.3006 0.7770
vn -0.4443 -0.1079 0.8894
vn 0.0000 0.0000 1.0000
vn -0.7332 -0.2852 0.6173
vn -0.7526 -0.1373 0.6440
vn -0.3418 0.4574 0.8210
vn 0.0000 0.5289 0.8487
vn -0.7430 0.1981 0.6393
vn -0.2876 0.5730 0.7674
vn -0.6254 0.3667 0.6888
vn -0.2972 0.2285 0.9271
vn 0.0000 0.2576 0.9663
vn -0.6040 0.2019 0.7710
vn -0.1917 0.4931 0.8486
vn 0.0000 0.4727 0.8812
vn -0.4693 0.4072 0.7835
vn -0.9605 -0.2783 0.0000
vn -0.9901 -0.1405 0.0000
vn -0.9908 -0.1353 -0.0000
vn -0.9605 -0.2783 -0.0000
vn -0.9901 -0.1405 -0.0000
vn -0.9925 -0.1221 -0.0000
vn -0.9643 0.2649 0.0000
vn -0.9652 0.2615 0.0000
vn -0.9643 0.2649 -0.0000
vn -0.9553 0.2955 0.0000
vn -0.9579 0.2870 -0.0000
vn -0.9708 0.2398 0.0000
vn -1.0000 0.0000 -0.0000
vn -0.0543 -0.3268 -0.9435
vn -0.0481 -0.2813 -0.9584
vn -0.0124 -0.1573 -0.9875
vn 0.0000 -0.1702 -0.9854
vn 0.0000 -0.2662 -0.9639
vn 0.0000 -0.1400 -0.9901
vn 0.0000 -0.3764 -0.9264
vn -0.0397 -0.2092 -0.9771
vn -0.0472 -0.3555 -0.9335
vn -0.1655 -0.1664 -0.9721
vn -0.0916 -0.0760 -0.9929
vn -0.2101 0.0155 -0.9775
vn 0.0000 -0.0785 -0.9969
vn -0.0628 -0.1759 -0.9824
vn -0.2271 -0.1196 -0.9665
vn 0.0000 -0.1706 -0.9853
vn 0.0018 -1.0000 0.0000
vn 0.1957 -0.9805 0.0176
vn 0.3133 -0.9497 0.0000
vn 0.2094 -0.9778 -0.0000
vn 0.3133 -0.9497 -0.0000
vn 0.3953 0.8851 0.2456
vn 0.3680 0.8205 0.4375
vn 0.5733 0.8149 0.0855
vn 0.3972 0.9177 0.0000
vn 0.4217 0.9067 -0.0000
vn 0.6510 0.7591 -0.0000
vn 0.3713 0.8852 -0.2803
vn 0.6413 0.7477 -0.1723
vn 0.2206 0.7624 -0.6083
vn 0.4322 0.7497 -0.5011
vn 0.4443 -0.1079 0.8894
vn 0.5532 -0.3006 0.7770
vn 0.7526 -0.1373 0.6440
vn 0.7332 -0.2852 0.6173
vn 0.3418 0.4574 0.8210
vn 0.7430 0.1981 0.6393
vn 0.2876 0.5730 0.7674
vn 0.6254 0.3667 0.6888
vn 0.2972 0.2285 0.9271
vn 0.6040 0.2019 0.7710
vn 0.1917 0.4931 0.8486
vn 0.4693 0.4072 0.7835
vn 0.9605 -0.2783 0.0000
vn 0.9908 -0.1353 -0.0000
vn 0.9901 -0.1405 0.0000
vn 0.9605 -0.2783 -0.0000
vn 0.9901 -0.1405 -0.0000
vn 0.9925 -0.1221 -0.0000
vn 0.9652 0.2615 0.0000
vn 0.9643 0.2649 0.0000
vn 0.9643 0.2649 -0.0000
vn 0.9553 0.2955 0.0000
vn 0.9579 0.2870 -0.0000
vn 0.9708 0.2398 0.0000
vn 1.0000 0.0000 -0.0000
vn 0.0543 -0.3268 -0.9435
vn 0.0124 -0.1573 -0.9875
vn 0.0481 -0.2813 -0.9584
vn 0.0397 -0.2092 -0.9771
vn 0.1655 -0.1664 -0.9721
vn 0.0472 -0.3555 -0.9335
vn 0.2101 0.0155 -0.9775
vn 0.0916 -0.0760 -0.9929
vn 0.2271 -0.1196 -0.9665
vn 0.0628 -0.1759 -0.9824
# 120 vertex normals

vt 0.5000 0.0000 0.0000
vt 0.5000 0.2500 0.0000
vt 0.2500 0.2500 0.0000
vt 0.2500 0.0000 0.0000
vt 0.0000 0.2500 0.0000
vt 0.0000 0.0000 0.0000
vt 0.5000 0.5000 0.0000
vt 0.2500 0.5000 0.0000
vt 0.0000 0.5000 0.0000
vt 0.5000 0.7500 0.0000
vt 0.2500 0.7500 0.0000
vt 0.0000 0.7500 0.0000
vt 0.5000 1.0000 0.0000
vt 0.2500 1.0000 0.0000
vt 0.0000 1.0000 0.0000
vt 0.7500 0.0000 0.0000
vt 0.7500 0.2500 0.0000
vt 1.0000 0.0000 0.0000
vt 1.0000 0.2500 0.0000
vt 0.7500 0.5000 0.0000
vt 1.0000 0.5000 0.0000
vt 0.7500 0.7500 0.0000
vt 1.0000 0.7500 0.0000
vt 0.7500 1.0000 0.0000
vt 1.0000 1.0000 0.0000
vt 0.7500 0.2000 0.0000
vt 0.5000 0.2000 0.0000
vt 1.0000 0.2000 0.0000
vt 0.7500 0.4000 0.0000
vt 0.5000 0.4000 0.0000
vt 1.0000 0.4000 0.0000
vt 0.7500 0.6000 0.0000
vt 0.5000 0.6000 0.0000
vt 1.0000 0.6000 0.0000
vt 0.7500 0.8000 0.0000
vt 0.5000 0.8000 0.0000
vt 1.0000 0.8000 0.0000
vt 0.2500 0.2000 0.0000
vt 0.0000 0.2000 0.0000
vt 0.2500 0.4000 0.0000
vt 0.0000 0.4000 0.0000
vt 0.2500 0.6000 0.0000
vt 0.0000 0.6000 0.0000
vt 0.2500 0.8000 0.0000
vt 0.0000 0.8000 0.0000
# 45 texture coords

g Head
usemtl wire_184228153
s 2
f 4/4/4 3/3/3 2/2/2 1/1/1 
f 6/6/5 5/5/5 3/3/3 4/4/4 
f 3/3/3 8/8/7 7/7/6 2/2/2 
f 5/5/5 9/9/8 8/8/7 3/3/3 
f 8/8/7 11/11/7 10/10/6 7/7/6 
f 9/9/8 12/12/8 11/11/7 8/8/7 
f 11/11/7 14/14/7 13/13/9 10/10/6 
f 12/12/8 15/15/8 14/14/7 11/11/7 
s 4
f 19/2/13 18/17/12 17/16/11 16/1/10 
f 18/17/12 21/19/15 20/18/14 17/16/11 
f 23/7/17 22/20/16 18/17/12 19/2/13 
f 22/20/16 24/21/18 21/19/15 18/17/12 
f 26/10/20 25/22/19 22/20/16 23/7/17 
f 25/22/19 27/23/21 24/21/18 22/20/16 
f 29/13/23 28/24/22 25/22/19 26/10/20 
f 28/24/22 30/25/24 27/23/21 25/22/19 
s 8
f 32/27/28 31/26/27 4/16/26 1/1/25 
f 31/26/27 33/28/30 6/18/29 4/16/26 
f 35/30/32 34/29/31 31/26/27 32/27/28 
f 34/29/31 36/31/33 33/28/30 31/26/27 
f 38/33/32 37/32/34 34/29/31 35/30/32 
f 37/32/34 39/34/35 36/31/33 34/29/31 
f 41/36/37 40/35/36 37/32/34 38/33/32 
f 40/35/36 42/37/38 39/34/35 37/32/34 
f 16/13/40 17/24/39 40/35/36 41/36/37 
f 17/24/39 20/25/41 42/37/38 40/35/36 
s 16
f 33/39/44 43/38/43 5/4/42 6/6/42 
f 43/38/43 44/27/43 9/1/45 5/4/42 
f 44/27/43 45/26/46 12/16/45 9/1/45 
f 45/26/46 46/28/47 15/18/45 12/16/45 
f 36/41/49 47/40/48 43/38/43 33/39/44 
f 47/40/48 48/30/50 44/27/43 43/38/43 
f 48/30/50 49/29/50 45/26/46 44/27/43 
f 49/29/50 50/31/51 46/28/47 45/26/46 
f 39/43/52 51/42/48 47/40/48 36/41/49 
f 51/42/48 52/33/50 48/30/50 47/40/48 
f 52/33/50 53/32/50 49/29/50 48/30/50 
f 53/32/50 54/34/53 50/31/51 49/29/50 
f 42/45/54 55/44/54 51/42/48 39/43/52 
f 55/44/54 56/36/54 52/33/50 51/42/48 
f 56/36/54 57/35/54 53/32/50 52/33/50 
f 57/35/54 58/37/54 54/34/53 53/32/50 
f 20/15/54 21/14/54 55/44/54 42/45/54 
f 21/14/54 24/13/54 56/36/54 55/44/54 
f 24/13/54 27/24/54 57/35/54 56/36/54 
f 27/24/54 30/25/54 58/37/54 57/35/54 
s 32
f 46/39/58 59/38/57 14/4/56 15/6/55 
f 59/38/57 60/27/60 13/1/59 14/4/56 
f 50/41/62 61/40/61 59/38/57 46/39/58 
f 61/40/61 62/30/61 60/27/60 59/38/57 
f 54/43/64 63/42/63 61/40/61 50/41/62 
f 63/42/63 64/33/61 62/30/61 61/40/61 
f 58/45/66 65/44/65 63/42/63 54/43/64 
f 65/44/65 66/36/67 64/33/61 63/42/63 
f 30/15/69 28/14/68 65/44/65 58/45/66 
f 28/14/68 29/13/70 66/36/67 65/44/65 
s 2
f 2/2/2 68/3/72 67/4/71 1/1/1 
f 68/3/72 70/5/73 69/6/73 67/4/71 
f 7/7/6 71/8/74 68/3/72 2/2/2 
f 71/8/74 72/9/75 70/5/73 68/3/72 
f 10/10/6 73/11/74 71/8/74 7/7/6 
f 73/11/74 74/12/75 72/9/75 71/8/74 
f 13/13/9 75/14/74 73/11/74 10/10/6 
f 75/14/74 76/15/75 74/12/75 73/11/74 
s 4
f 78/16/77 77/17/76 19/2/13 16/1/10 
f 80/18/79 79/19/78 77/17/76 78/16/77 
f 77/17/76 81/20/80 23/7/17 19/2/13 
f 79/19/78 82/21/81 81/20/80 77/17/76 
f 81/20/80 83/22/82 26/10/20 23/7/17 
f 82/21/81 84/23/83 83/22/82 81/20/80 
f 83/22/82 85/24/84 29/13/23 26/10/20 
f 84/23/83 86/25/85 85/24/84 83/22/82 
s 8
f 67/16/87 87/26/86 32/27/28 1/1/25 
f 69/18/89 88/28/88 87/26/86 67/16/87 
f 87/26/86 89/29/90 35/30/32 32/27/28 
f 88/28/88 90/31/91 89/29/90 87/26/86 
f 89/29/90 91/32/92 38/33/32 35/30/32 
f 90/31/91 92/34/93 91/32/92 89/29/90 
f 91/32/92 93/35/94 41/36/37 38/33/32 
f 92/34/93 94/37/95 93/35/94 91/32/92 
f 93/35/94 78/24/96 16/13/40 41/36/37 
f 94/37/95 80/25/97 78/24/96 93/35/94 
s 16
f 70/4/98 95/38/100 88/39/99 69/6/98 
f 72/1/101 96/27/100 95/38/100 70/4/98 
f 74/16/101 97/26/102 96/27/100 72/1/101 
f 76/18/101 98/28/103 97/26/102 74/16/101 
f 95/38/100 99/40/105 90/41/104 88/39/99 
f 96/27/100 100/30/106 99/40/105 95/38/100 
f 97/26/102 101/29/106 100/30/106 96/27/100 
f 98/28/103 102/31/107 101/29/106 97/26/102 
f 99/40/105 103/42/105 92/43/108 90/41/104 
f 100/30/106 104/33/106 103/42/105 99/40/105 
f 101/29/106 105/32/106 104/33/106 100/30/106 
f 102/31/107 106/34/109 105/32/106 101/29/106 
f 103/42/105 107/44/110 94/45/110 92/43/108 
f 104/33/106 108/36/110 107/44/110 103/42/105 
f 105/32/106 109/35/110 108/36/110 104/33/106 
f 106/34/109 110/37/110 109/35/110 105/32/106 
f 107/44/110 79/14/110 80/15/110 94/45/110 
f 108/36/110 82/13/110 79/14/110 107/44/110 
f 109/35/110 84/24/110 82/13/110 108/36/110 
f 110/37/110 86/25/110 84/24/110 109/35/110 
s 32
f 75/4/113 111/38/112 98/39/58 76/6/111 
f 13/1/59 60/27/60 111/38/112 75/4/113 
f 111/38/112 112/40/61 102/41/114 98/39/58 
f 60/27/60 62/30/61 112/40/61 111/38/112 
f 112/40/61 113/42/116 106/43/115 102/41/114 
f 62/30/61 64/33/61 113/42/116 112/40/61 
f 113/42/116 114/44/118 110/45/117 106/43/115 
f 64/33/61 66/36/67 114/44/118 113/42/116 
f 114/44/118 85/14/120 86/15/119 110/45/117 
f 66/36/67 29/13/70 85/14/120 114/44/118 
# 112 polygons

