# 3ds Max Wavefront OBJ Exporter v0.97b - (c)2007 guruware
# File Created: 30.01.2014 12:33:39

mtllib GiantArm.mtl

#
# object Box001
#

v  -0.6191 4.5910 1.4082
v  -0.5400 4.8862 1.3349
v  -0.2140 4.8862 1.1455
v  -0.2320 4.5910 1.2516
v  0.0092 4.8862 0.9561
v  0.4556 4.8862 0.9561
v  0.4879 4.5910 1.0949
v  0.0079 4.5910 1.0949
v  0.9830 4.8862 1.3349
v  0.9678 4.5910 1.4082
v  -0.4246 7.8177 1.5430
v  -0.2457 7.7550 1.3206
v  -0.5265 6.5592 1.0385
v  -0.9137 6.5592 1.2609
v  -0.1393 6.5592 0.8162
v  -0.0668 7.6924 1.0982
v  0.5626 7.5262 1.0982
v  0.6351 6.5592 0.8162
v  1.1920 7.5262 1.5430
v  1.4095 6.5592 1.2609
v  -0.9137 9.1422 1.2609
v  -0.5265 9.1422 1.0385
v  -0.1393 9.1422 0.8162
v  0.6351 9.1422 0.8162
v  1.4095 9.1422 1.2609
v  -0.6962 10.7582 1.2609
v  -1.1931 11.9653 1.2609
v  -0.6676 12.1029 1.0385
v  -0.3815 10.7582 1.4087
v  -0.1421 12.2404 0.8162
v  0.6493 12.2404 0.8162
v  0.5626 10.7582 1.1863
v  -0.0668 10.7582 1.1863
v  1.5890 11.9948 1.2609
v  1.1920 10.7582 1.2609
v  -0.6191 4.5910 2.1106
v  -0.2320 4.5910 2.2672
v  -0.2140 4.8862 2.3733
v  -0.5400 4.8862 2.1839
v  0.4879 4.5910 2.4239
v  0.4556 4.8862 2.5627
v  0.0092 4.8862 2.5627
v  0.0079 4.5910 2.4239
v  0.9678 4.5910 2.1106
v  0.9830 4.8862 2.1839
v  -0.5265 6.5592 2.4802
v  -0.2457 7.7550 2.4802
v  -0.4246 7.8177 2.2579
v  -0.9137 6.5592 2.2579
v  -0.1393 6.5592 2.7026
v  0.6351 6.5592 2.7026
v  0.5626 7.5262 2.7026
v  -0.0668 7.6924 2.7026
v  1.4095 6.5592 2.2579
v  1.1920 7.5262 2.2579
v  -0.5265 9.1422 2.4802
v  -0.9137 9.1422 2.2579
v  0.6351 9.1422 2.7026
v  -0.1393 9.1422 2.7026
v  1.4095 9.1422 2.2579
v  -0.6962 10.7582 2.2579
v  -0.3815 10.7582 2.4802
v  -0.6676 12.1029 2.4802
v  -1.1931 11.9653 2.2579
v  0.5626 10.7582 2.7026
v  0.6493 12.2404 2.7026
v  -0.1421 12.2404 2.7026
v  -0.0668 10.7582 2.7026
v  1.1920 10.7582 2.2579
v  1.5890 11.9948 2.2579
v  -0.5199 0.9279 1.6458
v  -0.5199 0.9279 2.1593
v  -0.9674 0.9279 2.0359
v  -0.9674 0.9279 1.4828
v  0.2864 0.6769 1.7220
v  0.7272 0.6884 1.6734
v  0.7272 0.6884 2.2827
v  0.2864 0.6769 2.2827
v  0.8390 1.3063 1.6734
v  1.2596 1.3046 1.4828
v  1.2596 1.3046 2.0359
v  0.8390 1.3063 2.2827
v  1.4280 13.2314 1.2609
v  0.5626 13.7226 0.8162
v  0.5626 13.7226 2.7026
v  1.4280 13.2314 2.2579
v  -0.0668 13.7226 0.8162
v  -0.0668 13.7226 2.7026
v  -0.5880 13.4475 1.0385
v  -0.5880 13.4475 2.4802
v  -1.1093 13.1723 2.2579
v  -1.1093 13.1723 1.2609
v  -0.4445 4.1758 1.3055
v  -0.9583 4.3600 1.4455
v  0.5218 4.0945 1.1655
v  0.0928 4.0945 1.1655
v  1.1642 4.0945 1.4455
v  1.1642 4.0945 2.0732
v  0.5218 4.0945 2.3533
v  0.0928 4.0945 2.3533
v  -0.4445 4.1758 2.2133
v  -0.9583 4.3600 2.0732
v  0.0588 3.5980 1.2361
v  0.0928 3.1317 1.4550
v  -0.5483 3.2130 1.4867
v  -0.6571 3.7606 1.3595
v  0.5557 3.5980 1.2361
v  0.5799 3.1465 1.4550
v  1.2151 3.2130 1.4828
v  1.2429 3.5980 1.4828
v  1.2151 3.2130 2.0359
v  1.2429 3.5980 2.0359
v  0.5557 3.5980 2.2827
v  0.5799 3.1465 2.2827
v  0.0928 3.1317 2.2827
v  0.0588 3.5980 2.2827
v  -0.9837 3.1101 2.0359
v  -0.5483 3.2130 2.1593
v  -0.6571 3.7606 2.1593
v  -1.2542 3.9232 2.0359
v  -1.4998 2.1317 1.4828
v  -1.4998 2.1317 2.0359
v  -1.9711 2.2873 2.0359
v  -1.9711 2.2873 1.4828
v  0.1194 0.2955 1.7220
v  0.1194 0.2955 2.2827
v  -0.3281 0.2955 2.1593
v  -0.3281 0.2955 1.6458
v  -0.8871 2.6654 1.4828
v  -0.9837 3.1101 1.4828
v  -0.4396 2.5382 1.6458
v  -0.4396 2.5382 2.1593
v  0.1267 2.5382 2.2827
v  0.1267 2.5382 1.7220
v  0.6338 2.6949 1.6734
v  1.1872 2.8279 1.4828
v  1.1872 2.8279 2.0359
v  0.6338 2.6949 2.2827
v  -0.8871 2.6654 2.0359
v  -1.2542 3.9232 1.4828
v  -1.2693 2.9013 1.4828
v  -1.7406 3.0940 1.4828
v  -1.2693 2.9013 2.0359
v  -1.7406 3.0940 2.0359
v  -0.4830 1.7921 1.6458
v  -0.9305 1.7921 1.4828
v  -0.4830 1.7920 2.1593
v  -0.9305 1.7920 2.0359
v  -0.4977 1.4018 1.6458
v  -0.9452 1.4018 1.4828
v  -0.4977 1.4018 2.1593
v  -0.9452 1.4018 2.0359
v  0.0899 1.7451 2.2827
v  0.0899 1.7451 1.7220
v  -0.3576 1.7451 2.1593
v  -0.3576 1.7451 1.6458
v  0.0972 1.0364 2.2827
v  0.0972 1.0364 1.7220
v  -0.3503 1.0364 2.1593
v  -0.3503 1.0364 1.6458
v  0.1957 1.9148 1.7220
v  0.1957 1.9148 2.2827
v  0.6966 1.9498 1.6734
v  0.6966 1.9498 2.2827
v  0.2591 1.3658 1.7220
v  0.2591 1.3658 2.2827
v  0.7208 1.3773 1.6734
v  0.7208 1.3773 2.2827
v  0.7845 2.1338 1.6734
v  0.7845 2.1338 2.2827
v  1.2094 2.1410 1.4828
v  1.2094 2.1410 2.0359
v  0.7956 1.8716 1.6734
v  0.7956 1.8716 2.2827
v  1.2343 1.8790 1.4828
v  1.2343 1.8790 2.0359
# 176 vertices

vn -0.4389 -0.1810 -0.8801
vn -0.4989 -0.1122 -0.8594
vn -0.5552 -0.1797 -0.8121
vn -0.4523 -0.3011 -0.8395
vn -0.3060 -0.2416 -0.9209
vn 0.2677 -0.2423 -0.9325
vn 0.3026 -0.3783 -0.8748
vn -0.2827 -0.4072 -0.8685
vn 0.5613 -0.1819 -0.8074
vn 0.5544 -0.2526 -0.7930
vn -0.7364 -0.0181 -0.6763
vn -0.7506 0.0326 -0.6600
vn -0.5042 0.0957 -0.8582
vn -0.4952 0.1068 -0.8622
vn -0.2711 0.0848 -0.9588
vn -0.4390 0.0237 -0.8982
vn 0.3092 0.0666 -0.9487
vn 0.2770 0.0900 -0.9566
vn 0.5461 0.0641 -0.8352
vn 0.4952 0.1062 -0.8623
vn -0.4934 -0.1365 -0.8591
vn -0.4842 -0.0738 -0.8718
vn -0.2740 0.0056 -0.9617
vn 0.2625 0.0168 -0.9648
vn 0.4567 -0.0267 -0.8892
vn 0.2855 -0.0122 -0.9583
vn -0.3745 -0.0648 -0.9250
vn -0.3530 -0.0939 -0.9309
vn -0.1187 -0.0338 -0.9924
vn -0.1912 -0.1067 -0.9757
vn 0.2187 -0.1008 -0.9706
vn 0.1176 -0.0178 -0.9929
vn -0.2904 -0.0338 -0.9563
vn 0.3679 -0.0841 -0.9261
vn 0.1177 -0.0123 -0.9930
vn -0.4389 -0.1810 0.8801
vn -0.4523 -0.3011 0.8395
vn -0.5552 -0.1797 0.8121
vn -0.4989 -0.1122 0.8594
vn 0.3026 -0.3783 0.8748
vn 0.2677 -0.2423 0.9325
vn -0.3060 -0.2416 0.9209
vn -0.2827 -0.4072 0.8685
vn 0.5544 -0.2526 0.7930
vn 0.5613 -0.1819 0.8074
vn -0.5085 0.0051 0.8611
vn -0.7517 0.0149 0.6593
vn -0.7379 -0.0127 0.6748
vn -0.4980 0.0116 0.8671
vn -0.2848 -0.0303 0.9581
vn 0.2850 -0.0401 0.9577
vn 0.2922 0.0043 0.9563
vn -0.4180 0.0060 0.9084
vn 0.4979 -0.0260 0.8669
vn 0.5467 0.0194 0.8371
vn -0.5117 -0.0450 0.8580
vn -0.4974 -0.0488 0.8661
vn 0.2774 -0.0000 0.9607
vn -0.2796 -0.0139 0.9600
vn 0.4980 -0.0000 0.8672
vn -0.5454 -0.0424 0.8371
vn -0.5733 -0.0411 0.8183
vn -0.4023 -0.0312 0.9150
vn -0.3745 -0.0648 0.9250
vn 0.2747 -0.0220 0.9613
vn 0.2336 0.0079 0.9723
vn -0.2061 0.0024 0.9785
vn -0.2809 -0.0178 0.9596
vn 0.5638 -0.0767 0.8223
vn 0.4569 -0.0150 0.8894
vn 0.0000 -1.0000 -0.0000
vn -0.0000 -1.0000 -0.0000
vn 0.0262 -0.9997 -0.0000
vn -0.0042 -1.0000 -0.0000
vn 0.9872 -0.1595 -0.0000
vn 0.9987 -0.0514 -0.0000
vn 0.9994 -0.0341 -0.0000
vn 0.9988 0.0490 -0.0000
vn 0.9990 0.0437 0.0000
vn 0.9999 -0.0109 -0.0000
vn 1.0000 0.0078 0.0000
vn 1.0000 -0.0000 0.0000
vn 0.9959 -0.0905 -0.0000
vn 0.9961 -0.0883 -0.0000
vn 0.4936 0.8697 0.0000
vn 0.2157 0.9765 0.0000
vn 0.4936 0.8697 -0.0000
vn -0.2092 0.9779 0.0000
vn -0.4668 0.8843 0.0000
vn -0.9871 -0.1599 -0.0000
vn -0.9976 0.0693 0.0000
vn -0.9956 -0.0932 0.0000
vn -0.9940 -0.1098 0.0000
vn -0.9918 -0.1280 -0.0000
vn -1.0000 0.0094 0.0000
vn -0.9983 0.0583 0.0000
vn -0.9968 0.0796 -0.0000
vn -1.0000 0.0085 0.0000
vn -1.0000 -0.0022 0.0000
vn -0.4012 0.0247 -0.9157
vn -0.4010 0.0220 -0.9158
vn -0.1631 0.0083 -0.9866
vn 0.1894 0.0111 -0.9818
vn 0.4575 0.0392 -0.8883
vn -0.1631 0.0083 0.9866
vn -0.4010 0.0220 0.9158
vn 0.1894 0.0111 0.9818
vn 0.4575 0.0392 0.8883
vn 0.9916 0.1291 -0.0000
vn -0.2898 0.1132 -0.9504
vn -0.0000 -0.1408 -0.9900
vn 0.4674 0.0123 -0.8840
vn 0.9299 0.3677 0.0000
vn 0.4674 0.0123 0.8840
vn 0.0000 -0.1408 0.9900
vn -0.3625 -0.0761 0.9289
vn -0.5629 0.8265 0.0000
vn -0.1668 -0.3395 -0.9257
vn 0.0065 -0.4302 -0.9027
vn 0.2089 -0.2485 -0.9459
vn 0.9974 -0.0721 -0.0000
vn 0.3497 -0.0015 0.9368
vn 0.0000 -0.0000 1.0000
vn -0.2355 -0.0656 0.9697
vn -0.3134 -0.9496 -0.0000
vn -0.4012 0.0247 0.9157
vn -0.3625 -0.0761 -0.9289
vn -0.2898 0.1132 0.9504
vn 0.1817 -0.1056 -0.9777
vn -0.2017 -0.0227 0.9792
vn 0.0137 -0.3171 -0.9483
vn 0.0279 -0.4191 -0.9075
vn -0.0892 -0.2541 -0.9630
vn 0.3818 0.0119 0.9242
vn -0.2701 -0.0496 0.9616
vn -0.9772 -0.2124 -0.0000
vn -0.1213 -0.1258 -0.9846
vn -0.1833 -0.0258 0.9827
vn -0.9659 0.2588 0.0000
vn -0.2223 0.0282 -0.9746
vn 0.3677 -0.0591 -0.9281
vn 0.9877 0.1566 0.0000
vn 0.3677 -0.0591 0.9281
vn -0.2189 -0.0738 0.9730
vn -0.8279 0.5608 0.0000
vn -0.2189 -0.0738 -0.9730
vn -0.2223 0.0282 0.9746
vn 0.0000 0.0000 -1.0000
vn 0.5902 -0.8073 -0.0000
vn -0.0000 -0.0000 1.0000
vn -0.8625 0.5060 0.0000
vn -0.0000 0.0000 -1.0000
vn 0.9579 -0.2870 -0.0000
vn -0.9615 0.2748 0.0000
vn 0.3398 -0.0182 -0.9403
vn 0.9983 -0.0581 -0.0000
vn -0.2639 0.0141 0.9644
vn -0.9988 0.0496 0.0000
vn 0.3421 -0.0129 -0.9396
vn 0.9993 -0.0378 -0.0000
vn -0.2658 0.0101 0.9640
vn -0.9993 0.0378 0.0000
vn 0.3421 -0.0160 -0.9395
vn 0.9989 -0.0467 -0.0000
vn -0.2658 0.0124 0.9640
vn -0.9989 0.0467 0.0000
vn 0.9989 -0.0464 -0.0000
vn -0.2365 -0.0067 0.9716
vn -0.9947 -0.1028 -0.0000
vn 0.1488 0.0042 -0.9889
vn 0.9999 0.0104 0.0000
vn -0.2658 -0.0028 0.9640
vn -0.9999 -0.0104 -0.0000
vn 0.1680 0.0018 -0.9858
vn 0.9996 0.0299 0.0000
vn -0.2658 -0.0080 0.9640
vn -0.9996 -0.0299 -0.0000
vn 0.1680 0.0050 -0.9858
vn -0.9939 -0.1100 -0.0000
vn -0.0944 -0.0091 -0.9955
vn 0.9965 0.0839 0.0000
vn -0.9934 -0.1147 -0.0000
vn -0.1002 -0.0078 -0.9949
vn 0.9991 0.0422 0.0000
vn -0.9992 -0.0395 -0.0000
vn -0.1072 -0.0026 -0.9942
vn 1.0000 0.0093 0.0000
vn -0.9658 -0.2593 -0.0000
vn -0.3564 -0.0494 -0.9330
vn 0.9995 0.0323 0.0000
vn 0.4425 0.0613 0.8947
vn -0.9991 -0.0424 -0.0000
vn -0.4032 -0.0277 -0.9147
vn 0.9955 0.0944 0.0000
vn 0.4954 0.0340 0.8680
vn -0.9971 -0.0765 -0.0000
vn -0.4052 -0.0244 -0.9139
vn 0.9990 0.0440 0.0000
vn 0.4977 0.0300 0.8668
# 199 vertex normals

vt 1.0000 0.0000 0.0000
vt 1.0000 0.0375 0.0000
vt 0.8333 0.0375 0.0000
vt 0.8333 0.0000 0.0000
vt 0.6667 0.0375 0.0000
vt 0.3333 0.0375 0.0000
vt 0.3333 0.0000 0.0000
vt 0.6667 0.0000 0.0000
vt -0.0000 0.0375 0.0000
vt -0.0000 0.0000 0.0000
vt 1.0000 0.5000 0.0000
vt 0.8333 0.5000 0.0000
vt 0.8333 0.2500 0.0000
vt 1.0000 0.2500 0.0000
vt 0.6667 0.2500 0.0000
vt 0.6667 0.5000 0.0000
vt 0.3333 0.5000 0.0000
vt 0.3333 0.2500 0.0000
vt -0.0000 0.5000 0.0000
vt -0.0000 0.2500 0.0000
vt 1.0000 0.6250 0.0000
vt 0.8333 0.6250 0.0000
vt 0.6667 0.6250 0.0000
vt 0.3333 0.6250 0.0000
vt -0.0000 0.6250 0.0000
vt 1.0000 0.7500 0.0000
vt 1.0000 0.8750 0.0000
vt 0.8333 0.8750 0.0000
vt 0.8333 0.7500 0.0000
vt 0.6667 0.8750 0.0000
vt 0.3333 0.8750 0.0000
vt 0.3333 0.7500 0.0000
vt 0.6667 0.7500 0.0000
vt -0.0000 0.8750 0.0000
vt -0.0000 0.7500 0.0000
vt 0.0000 0.0000 0.0000
vt 0.1667 0.0000 0.0000
vt 0.1667 0.0375 0.0000
vt 0.0000 0.0375 0.0000
vt 0.1667 0.2500 0.0000
vt 0.1667 0.5000 0.0000
vt 0.0000 0.5000 0.0000
vt 0.0000 0.2500 0.0000
vt 0.1667 0.6250 0.0000
vt 0.0000 0.6250 0.0000
vt 0.0000 0.7500 0.0000
vt 0.1667 0.7500 0.0000
vt 0.1667 0.8750 0.0000
vt 0.0000 0.8750 0.0000
vt 0.1667 1.0000 0.0000
vt 0.0000 1.0000 0.0000
vt 0.6667 1.0000 0.0000
vt 0.3333 1.0000 0.0000
vt 1.0000 1.0000 0.0000
vt 0.0375 0.0000 0.0000
vt 0.0375 1.0000 0.0000
vt 0.2500 0.0000 0.0000
vt 0.5000 0.0000 0.0000
vt 0.5000 1.0000 0.0000
vt 0.2500 1.0000 0.0000
vt 0.6250 0.0000 0.0000
vt 0.6250 1.0000 0.0000
vt 0.8750 0.0000 0.0000
vt 0.8750 1.0000 0.0000
vt 0.7500 1.0000 0.0000
vt 0.7500 0.0000 0.0000
vt 0.8333 1.0000 0.0000
vt 0.1250 0.0000 0.0000
vt 0.1250 1.0000 0.0000
vt 0.3750 0.0000 0.0000
vt 0.3750 1.0000 0.0000
vt 0.9625 0.0000 0.0000
vt 0.9625 1.0000 0.0000
vt -0.0000 1.0000 0.0000
vt 0.4167 0.0000 0.0000
vt 0.5833 0.0000 0.0000
# 76 texture coords

g Box001
usemtl wire_006135058
s 2
f 1/1/1 2/2/2 3/3/3 4/4/4 
f 5/5/5 6/6/6 7/7/7 8/8/8 
f 6/6/6 9/9/9 10/10/10 7/7/7 
f 11/11/11 12/12/12 13/13/13 14/14/14 
f 15/15/15 16/16/16 17/17/17 18/18/18 
f 18/18/18 17/17/17 19/19/19 20/20/20 
f 11/11/11 21/21/21 22/22/22 12/12/12 
f 23/23/23 24/24/24 17/17/17 16/16/16 
f 24/24/24 25/25/25 19/19/19 17/17/17 
f 26/26/26 27/27/27 28/28/28 29/29/29 
f 30/30/30 31/31/31 32/32/32 33/33/33 
f 32/32/32 31/31/31 34/34/34 35/35/35 
s 4
f 36/36/36 37/37/37 38/38/38 39/39/39 
f 40/8/40 41/5/41 42/6/42 43/7/43 
f 44/1/44 45/2/45 41/5/41 40/8/40 
f 46/40/46 47/41/47 48/42/48 49/43/49 
f 50/18/50 51/15/51 52/16/52 53/17/53 
f 51/15/51 54/14/54 55/11/55 52/16/52 
f 48/42/48 47/41/47 56/44/56 57/45/57 
f 52/16/52 58/23/58 59/24/59 53/17/53 
f 55/11/55 60/21/60 58/23/58 52/16/52 
f 61/46/61 62/47/62 63/48/63 64/49/64 
f 65/33/65 66/30/66 67/31/67 68/32/68 
f 65/33/65 69/26/69 70/27/70 66/30/66 
s 8
f 71/37/71 72/50/71 73/51/71 74/36/72 
f 75/7/73 76/8/73 77/52/73 78/53/73 
f 79/8/74 80/1/74 81/54/74 82/52/74 
s 16
f 9/55/75 45/56/75 44/51/76 10/36/76 
f 20/57/77 19/58/78 55/59/79 54/60/80 
f 25/61/81 60/62/82 55/59/79 19/58/78 
f 34/63/83 70/64/83 69/65/84 35/66/84 
s 32
f 83/36/85 84/7/86 85/53/86 86/51/87 
f 84/7/86 87/8/88 88/52/88 85/53/86 
f 89/4/89 90/67/89 88/52/88 87/8/88 
s 64
f 27/68/90 64/69/90 91/51/91 92/36/91 
f 21/70/92 57/71/93 61/60/94 26/57/94 
f 11/58/95 14/66/96 49/65/97 48/59/98 
f 2/72/99 39/73/99 49/65/97 14/66/96 
s 2
f 26/26/26 29/29/29 22/22/22 21/21/21 
f 33/33/33 32/32/32 24/24/24 23/23/23 
f 32/32/32 35/35/35 25/25/25 24/24/24 
s 4
f 59/24/59 68/32/68 62/47/62 56/44/56 
f 65/33/65 68/32/68 59/24/59 58/23/58 
f 69/26/69 65/33/65 58/23/58 60/21/60 
s 16
f 35/66/84 69/65/84 60/62/82 25/61/81 
s 64
f 11/58/95 48/59/98 57/71/93 21/70/92 
s 2
f 92/54/100 89/67/101 28/28/28 27/27/27 
f 87/52/102 84/53/103 31/31/31 30/30/30 
f 31/31/31 84/53/103 83/74/104 34/34/34 
s 4
f 67/31/67 88/53/105 90/50/106 63/48/63 
f 85/52/107 88/53/105 67/31/67 66/30/66 
f 86/54/108 85/52/107 66/30/66 70/27/70 
s 16
f 83/1/109 86/54/109 70/64/83 34/63/83 
s 64
f 26/57/94 61/60/94 64/69/90 27/68/90 
s off
f 1/1/110 4/4/110 93/8/110 94/66/110 
f 7/7/111 95/75/111 96/76/111 8/8/111 
f 10/10/112 97/57/112 95/75/112 7/7/112 
f 44/51/113 98/60/113 97/57/113 10/36/113 
f 44/1/114 40/8/114 99/15/114 98/14/114 
f 43/7/115 100/18/115 99/15/115 40/8/115 
f 37/37/116 101/40/116 100/18/116 43/7/116 
f 1/1/117 94/66/117 102/65/117 36/54/117 
f 103/58/118 104/75/118 105/7/118 106/58/118 
f 107/58/119 108/76/119 104/75/119 103/58/119 
f 109/66/120 108/76/120 107/58/120 110/58/120 
f 111/65/121 109/66/121 110/58/121 112/59/121 
f 113/16/122 114/33/122 111/26/122 112/11/122 
f 115/32/123 114/33/123 113/16/123 116/17/123 
f 117/46/124 118/47/124 119/41/124 120/42/124 
f 121/57/125 122/60/125 123/59/125 124/58/125 
s 2
f 15/15/15 5/5/5 3/3/3 13/13/13 
f 12/12/12 16/16/16 15/15/15 13/13/13 
f 23/23/23 16/16/16 12/12/12 22/22/22 
f 28/28/28 30/30/30 33/33/33 29/29/29 
s 4
f 37/37/37 43/7/43 42/6/42 38/38/38 
f 50/18/50 53/17/53 47/41/47 46/40/46 
f 47/41/47 53/17/53 59/24/59 56/44/56 
f 68/32/68 67/31/67 63/48/63 62/47/62 
s 8
f 125/7/71 126/53/71 127/50/71 128/37/71 
s 32
f 92/1/89 91/54/89 90/67/89 89/4/89 
s 2
f 29/29/29 33/33/33 23/23/23 22/22/22 
s 4
f 61/46/61 57/45/57 56/44/56 62/47/62 
s 2
f 89/67/101 87/52/102 30/30/30 28/28/28 
s 4
f 91/51/126 64/49/64 63/48/63 90/50/106 
s off
f 4/4/127 8/8/127 96/76/127 93/8/127 
f 36/36/128 102/43/128 101/40/128 37/37/128 
f 129/36/129 130/57/129 105/7/129 131/37/129 
f 132/50/130 133/53/130 115/32/130 118/47/130 
f 104/75/131 134/7/131 131/37/131 105/7/131 
f 108/76/132 135/8/132 134/7/132 104/75/132 
f 136/1/133 135/8/133 108/76/133 109/66/133 
f 137/54/121 136/1/121 109/66/121 111/65/121 
f 114/33/134 138/52/134 137/54/134 111/26/134 
f 133/53/123 138/52/123 114/33/123 115/32/123 
f 139/51/135 132/50/135 118/47/135 117/46/135 
f 129/36/136 139/51/136 117/60/136 130/57/136 
f 130/57/137 140/58/137 106/58/137 105/7/137 
f 116/17/138 119/41/138 118/47/138 115/32/138 
s 2
f 2/2/2 14/14/14 13/13/13 3/3/3 
f 15/15/15 18/18/18 6/6/6 5/5/5 
f 18/18/18 20/20/20 9/9/9 6/6/6 
s 4
f 46/40/46 49/43/49 39/39/39 38/38/38 
f 51/15/51 50/18/50 42/6/42 41/5/41 
f 45/2/45 54/14/54 51/15/51 41/5/41 
s 16
f 20/57/77 54/60/80 45/56/75 9/55/75 
s 64
f 1/1/139 36/54/139 39/73/99 2/72/99 
s 2
f 5/5/5 8/8/8 4/4/4 3/3/3 
s 4
f 50/18/50 46/40/46 38/38/38 42/6/42 
s off
f 106/58/140 140/58/140 94/66/140 93/8/140 
f 107/58/111 103/58/111 96/76/111 95/75/111 
f 97/57/141 110/58/141 107/58/141 95/75/141 
f 112/59/142 110/58/142 97/57/142 98/60/142 
f 113/16/143 112/11/143 98/14/143 99/15/143 
f 116/17/115 113/16/115 99/15/115 100/18/115 
f 101/40/144 119/41/144 116/17/144 100/18/144 
f 140/58/145 120/59/145 102/65/145 94/66/145 
f 103/58/146 106/58/146 93/8/146 96/76/146 
f 102/43/147 120/42/147 119/41/147 101/40/147 
f 140/58/148 130/57/148 141/57/148 142/58/148 
f 130/57/149 117/60/149 143/60/149 141/57/149 
f 117/46/150 120/42/150 144/59/150 143/60/150 
f 120/59/151 140/58/151 142/58/151 144/59/151 
f 142/58/152 141/57/152 121/57/152 124/58/152 
f 141/57/153 143/60/153 122/60/153 121/57/153 
f 143/60/123 144/59/123 123/59/123 122/60/123 
f 144/59/154 142/58/154 124/58/154 123/59/154 
f 129/36/155 131/37/155 145/37/155 146/36/155 
f 131/37/156 132/50/156 147/50/156 145/37/156 
f 132/50/157 139/51/157 148/51/157 147/50/157 
f 139/51/158 129/36/158 146/36/158 148/51/158 
f 146/36/159 145/37/159 149/37/159 150/36/159 
f 145/37/160 147/50/160 151/50/160 149/37/160 
f 147/50/161 148/51/161 152/51/161 151/50/161 
f 148/51/162 146/36/162 150/36/162 152/51/162 
f 150/36/163 149/37/163 71/37/163 74/36/163 
f 149/37/164 151/50/164 72/50/164 71/37/164 
f 151/50/165 152/51/165 73/51/165 72/50/165 
f 152/51/166 150/36/166 74/36/166 73/51/166 
f 134/7/167 133/53/167 153/53/167 154/7/167 
f 133/53/168 132/50/168 155/50/168 153/53/168 
f 132/50/169 131/37/169 156/37/169 155/50/169 
f 131/37/170 134/7/170 154/7/170 156/37/170 
f 154/7/171 153/53/171 157/53/171 158/7/171 
f 153/53/172 155/50/172 159/50/172 157/53/172 
f 155/50/173 156/37/173 160/37/173 159/50/173 
f 156/37/174 154/7/174 158/7/174 160/37/174 
f 158/7/175 157/53/175 126/53/175 125/7/175 
f 157/53/176 159/50/176 127/50/176 126/53/176 
f 159/50/177 160/37/177 128/37/177 127/50/177 
f 160/37/178 158/7/178 125/7/178 128/37/178 
f 133/53/179 134/7/179 161/7/179 162/53/179 
f 134/7/180 135/8/180 163/8/180 161/7/180 
f 135/8/181 138/52/181 164/52/181 163/8/181 
f 138/52/123 133/53/123 162/53/123 164/52/123 
f 162/53/182 161/7/182 165/7/182 166/53/182 
f 161/7/183 163/8/183 167/8/183 165/7/183 
f 163/8/184 164/52/184 168/52/184 167/8/184 
f 164/52/123 162/53/123 166/53/123 168/52/123 
f 166/53/185 165/7/185 75/7/185 78/53/185 
f 165/7/186 167/8/186 76/8/186 75/7/186 
f 167/8/187 168/52/187 77/52/187 76/8/187 
f 168/52/150 166/53/150 78/53/150 77/52/150 
f 138/52/188 135/8/188 169/8/188 170/52/188 
f 135/8/189 136/1/189 171/1/189 169/8/189 
f 136/1/190 137/54/190 172/54/190 171/1/190 
f 137/54/191 138/52/191 170/52/191 172/54/191 
f 170/52/192 169/8/192 173/8/192 174/52/192 
f 169/8/193 171/1/193 175/1/193 173/8/193 
f 171/1/194 172/54/194 176/54/194 175/1/194 
f 172/54/195 170/52/195 174/52/195 176/54/195 
f 174/52/196 173/8/196 79/8/196 82/52/196 
f 173/8/197 175/1/197 80/1/197 79/8/197 
f 175/1/198 176/54/198 81/54/198 80/1/198 
f 176/54/199 174/52/199 82/52/199 81/54/199 
# 174 polygons

